<mxfile host="app.diagrams.net" agent="Mozilla/5.0 (Windows NT 10.0; Win64; x64) AppleWebKit/537.36 (KHTML, like Gecko) Chrome/131.0.0.0 Safari/537.36" version="26.1.2" pages="2">
  <diagram name="Trang-1" id="iNuTgDqB5YGGc_dW255r">
    <mxGraphModel dx="718" dy="379" grid="1" gridSize="11" guides="1" tooltips="1" connect="1" arrows="1" fold="1" page="1" pageScale="1" pageWidth="1654" pageHeight="1169" background="none" math="0" shadow="0">
      <root>
        <mxCell id="0" />
        <mxCell id="1" parent="0" />
        <mxCell id="Lc2VKI5pzuuBeO4M9qtB-26" value="" style="shape=process;whiteSpace=wrap;html=1;backgroundOutline=1;fillColor=none;verticalAlign=top;align=right;rotation=90;" parent="1" vertex="1">
          <mxGeometry x="143.68" y="293.56" width="110" height="30" as="geometry" />
        </mxCell>
        <mxCell id="Lc2VKI5pzuuBeO4M9qtB-30" value="" style="verticalLabelPosition=bottom;html=1;verticalAlign=top;align=center;shape=mxgraph.floorplan.doorDouble;aspect=fixed;" parent="1" vertex="1">
          <mxGeometry x="163.68" y="133" width="117.65" height="62.5" as="geometry" />
        </mxCell>
        <mxCell id="Lc2VKI5pzuuBeO4M9qtB-32" value="" style="line;strokeWidth=2;html=1;" parent="1" vertex="1">
          <mxGeometry x="283.68" y="123.25" width="50" height="20" as="geometry" />
        </mxCell>
        <mxCell id="Lc2VKI5pzuuBeO4M9qtB-33" value="" style="line;strokeWidth=2;html=1;" parent="1" vertex="1">
          <mxGeometry x="483.68" y="123.25" width="65.3" height="20" as="geometry" />
        </mxCell>
        <mxCell id="Lc2VKI5pzuuBeO4M9qtB-36" value="" style="line;strokeWidth=2;html=1;" parent="1" vertex="1">
          <mxGeometry x="698.9799999999999" y="123.25" width="84.7" height="20" as="geometry" />
        </mxCell>
        <mxCell id="Lc2VKI5pzuuBeO4M9qtB-44" value="" style="line;strokeWidth=2;html=1;rotation=90;" parent="1" vertex="1">
          <mxGeometry x="484.25" y="420.86" width="599.77" height="20" as="geometry" />
        </mxCell>
        <mxCell id="Lc2VKI5pzuuBeO4M9qtB-60" value="" style="endArrow=none;html=1;rounded=0;" parent="1" edge="1">
          <mxGeometry width="50" height="50" relative="1" as="geometry">
            <mxPoint x="193.68" y="263" as="sourcePoint" />
            <mxPoint x="193.86" y="354.13" as="targetPoint" />
          </mxGeometry>
        </mxCell>
        <mxCell id="Lc2VKI5pzuuBeO4M9qtB-69" value="" style="line;strokeWidth=2;html=1;" parent="1" vertex="1">
          <mxGeometry x="103.68" y="123" width="60" height="20" as="geometry" />
        </mxCell>
        <mxCell id="Lc2VKI5pzuuBeO4M9qtB-71" value="" style="line;strokeWidth=2;html=1;rotation=90;" parent="1" vertex="1">
          <mxGeometry x="-197.17" y="422.71" width="600.78" height="20" as="geometry" />
        </mxCell>
        <mxCell id="Lc2VKI5pzuuBeO4M9qtB-74" value="" style="endArrow=none;html=1;rounded=0;" parent="1" edge="1">
          <mxGeometry width="50" height="50" relative="1" as="geometry">
            <mxPoint x="203.68" y="263" as="sourcePoint" />
            <mxPoint x="203.86" y="354.13" as="targetPoint" />
          </mxGeometry>
        </mxCell>
        <mxCell id="Lc2VKI5pzuuBeO4M9qtB-76" value="" style="shape=process;whiteSpace=wrap;html=1;backgroundOutline=1;fillColor=none;verticalAlign=top;align=right;rotation=90;" parent="1" vertex="1">
          <mxGeometry x="144.02" y="437.56" width="110" height="30" as="geometry" />
        </mxCell>
        <mxCell id="Lc2VKI5pzuuBeO4M9qtB-77" value="" style="endArrow=none;html=1;rounded=0;" parent="1" edge="1">
          <mxGeometry width="50" height="50" relative="1" as="geometry">
            <mxPoint x="194.02" y="407" as="sourcePoint" />
            <mxPoint x="194.20000000000002" y="498.13" as="targetPoint" />
          </mxGeometry>
        </mxCell>
        <mxCell id="Lc2VKI5pzuuBeO4M9qtB-78" value="" style="endArrow=none;html=1;rounded=0;" parent="1" edge="1">
          <mxGeometry width="50" height="50" relative="1" as="geometry">
            <mxPoint x="204.02" y="407" as="sourcePoint" />
            <mxPoint x="204.20000000000002" y="498.13" as="targetPoint" />
          </mxGeometry>
        </mxCell>
        <mxCell id="Lc2VKI5pzuuBeO4M9qtB-79" value="" style="shape=process;whiteSpace=wrap;html=1;backgroundOutline=1;fillColor=default;verticalAlign=top;align=right;rotation=90;strokeColor=#1A1A1A;rounded=0;fillStyle=solid;gradientColor=none;glass=0;shadow=0;" parent="1" vertex="1">
          <mxGeometry x="144.19" y="581.34" width="109.66" height="30" as="geometry" />
        </mxCell>
        <mxCell id="Lc2VKI5pzuuBeO4M9qtB-80" value="" style="endArrow=none;html=1;rounded=0;" parent="1" edge="1">
          <mxGeometry width="50" height="50" relative="1" as="geometry">
            <mxPoint x="194.02" y="552.99" as="sourcePoint" />
            <mxPoint x="194.20000000000002" y="644.12" as="targetPoint" />
          </mxGeometry>
        </mxCell>
        <mxCell id="Lc2VKI5pzuuBeO4M9qtB-81" value="" style="endArrow=none;html=1;rounded=0;" parent="1" edge="1">
          <mxGeometry width="50" height="50" relative="1" as="geometry">
            <mxPoint x="204.02" y="552.99" as="sourcePoint" />
            <mxPoint x="204.20000000000002" y="644.12" as="targetPoint" />
          </mxGeometry>
        </mxCell>
        <mxCell id="Lc2VKI5pzuuBeO4M9qtB-91" value="" style="shape=process;whiteSpace=wrap;html=1;backgroundOutline=1;fillColor=none;verticalAlign=top;align=right;rotation=90;" parent="1" vertex="1">
          <mxGeometry x="393.68" y="293.56" width="110" height="30" as="geometry" />
        </mxCell>
        <mxCell id="Lc2VKI5pzuuBeO4M9qtB-92" value="" style="endArrow=none;html=1;rounded=0;" parent="1" edge="1">
          <mxGeometry width="50" height="50" relative="1" as="geometry">
            <mxPoint x="443.68" y="263" as="sourcePoint" />
            <mxPoint x="443.86" y="354.13" as="targetPoint" />
            <Array as="points">
              <mxPoint x="443.68" y="303" />
            </Array>
          </mxGeometry>
        </mxCell>
        <mxCell id="Lc2VKI5pzuuBeO4M9qtB-93" value="" style="endArrow=none;html=1;rounded=0;" parent="1" edge="1">
          <mxGeometry width="50" height="50" relative="1" as="geometry">
            <mxPoint x="453.68" y="263" as="sourcePoint" />
            <mxPoint x="453.86" y="354.13" as="targetPoint" />
            <Array as="points">
              <mxPoint x="453.68" y="313" />
            </Array>
          </mxGeometry>
        </mxCell>
        <mxCell id="Lc2VKI5pzuuBeO4M9qtB-94" value="" style="shape=process;whiteSpace=wrap;html=1;backgroundOutline=1;fillColor=none;verticalAlign=top;align=right;rotation=90;" parent="1" vertex="1">
          <mxGeometry x="393.68" y="437.55" width="110" height="30" as="geometry" />
        </mxCell>
        <mxCell id="Lc2VKI5pzuuBeO4M9qtB-95" value="" style="endArrow=none;html=1;rounded=0;" parent="1" edge="1">
          <mxGeometry width="50" height="50" relative="1" as="geometry">
            <mxPoint x="443.68" y="406.99" as="sourcePoint" />
            <mxPoint x="443.86" y="498.12" as="targetPoint" />
          </mxGeometry>
        </mxCell>
        <mxCell id="Lc2VKI5pzuuBeO4M9qtB-96" value="" style="endArrow=none;html=1;rounded=0;" parent="1" edge="1">
          <mxGeometry width="50" height="50" relative="1" as="geometry">
            <mxPoint x="453.68" y="406.99" as="sourcePoint" />
            <mxPoint x="453.86" y="498.12" as="targetPoint" />
          </mxGeometry>
        </mxCell>
        <mxCell id="Lc2VKI5pzuuBeO4M9qtB-97" value="" style="shape=process;whiteSpace=wrap;html=1;backgroundOutline=1;fillColor=none;verticalAlign=top;align=right;rotation=90;" parent="1" vertex="1">
          <mxGeometry x="393.68" y="583.56" width="110" height="30" as="geometry" />
        </mxCell>
        <mxCell id="Lc2VKI5pzuuBeO4M9qtB-98" value="" style="endArrow=none;html=1;rounded=0;" parent="1" edge="1">
          <mxGeometry width="50" height="50" relative="1" as="geometry">
            <mxPoint x="443.68" y="553" as="sourcePoint" />
            <mxPoint x="443.86" y="644.13" as="targetPoint" />
          </mxGeometry>
        </mxCell>
        <mxCell id="Lc2VKI5pzuuBeO4M9qtB-99" value="" style="endArrow=none;html=1;rounded=0;" parent="1" edge="1">
          <mxGeometry width="50" height="50" relative="1" as="geometry">
            <mxPoint x="453.68" y="553" as="sourcePoint" />
            <mxPoint x="453.86" y="644.13" as="targetPoint" />
          </mxGeometry>
        </mxCell>
        <mxCell id="Lc2VKI5pzuuBeO4M9qtB-100" value="" style="shape=process;whiteSpace=wrap;html=1;backgroundOutline=1;fillColor=none;verticalAlign=top;align=right;rotation=90;" parent="1" vertex="1">
          <mxGeometry x="623.65" y="287.43" width="110" height="30" as="geometry" />
        </mxCell>
        <mxCell id="Lc2VKI5pzuuBeO4M9qtB-101" value="" style="endArrow=none;html=1;rounded=0;" parent="1" edge="1">
          <mxGeometry width="50" height="50" relative="1" as="geometry">
            <mxPoint x="673.65" y="256.87" as="sourcePoint" />
            <mxPoint x="673.83" y="348" as="targetPoint" />
          </mxGeometry>
        </mxCell>
        <mxCell id="Lc2VKI5pzuuBeO4M9qtB-102" value="" style="endArrow=none;html=1;rounded=0;" parent="1" edge="1">
          <mxGeometry width="50" height="50" relative="1" as="geometry">
            <mxPoint x="683.65" y="256.87" as="sourcePoint" />
            <mxPoint x="683.83" y="348" as="targetPoint" />
          </mxGeometry>
        </mxCell>
        <mxCell id="Lc2VKI5pzuuBeO4M9qtB-103" value="" style="shape=process;whiteSpace=wrap;html=1;backgroundOutline=1;fillColor=none;verticalAlign=top;align=right;rotation=90;" parent="1" vertex="1">
          <mxGeometry x="623.65" y="439.43" width="110" height="30" as="geometry" />
        </mxCell>
        <mxCell id="Lc2VKI5pzuuBeO4M9qtB-104" value="" style="endArrow=none;html=1;rounded=0;" parent="1" edge="1">
          <mxGeometry width="50" height="50" relative="1" as="geometry">
            <mxPoint x="673.65" y="408.87" as="sourcePoint" />
            <mxPoint x="673.83" y="500" as="targetPoint" />
          </mxGeometry>
        </mxCell>
        <mxCell id="Lc2VKI5pzuuBeO4M9qtB-105" value="" style="endArrow=none;html=1;rounded=0;" parent="1" edge="1">
          <mxGeometry width="50" height="50" relative="1" as="geometry">
            <mxPoint x="683.65" y="408.87" as="sourcePoint" />
            <mxPoint x="683.83" y="500" as="targetPoint" />
          </mxGeometry>
        </mxCell>
        <mxCell id="Lc2VKI5pzuuBeO4M9qtB-106" value="" style="shape=process;whiteSpace=wrap;html=1;backgroundOutline=1;fillColor=none;verticalAlign=top;align=right;rotation=90;" parent="1" vertex="1">
          <mxGeometry x="623.65" y="577.43" width="110" height="30" as="geometry" />
        </mxCell>
        <mxCell id="Lc2VKI5pzuuBeO4M9qtB-107" value="" style="endArrow=none;html=1;rounded=0;" parent="1" edge="1">
          <mxGeometry width="50" height="50" relative="1" as="geometry">
            <mxPoint x="673.65" y="546.87" as="sourcePoint" />
            <mxPoint x="673.83" y="638" as="targetPoint" />
          </mxGeometry>
        </mxCell>
        <mxCell id="Lc2VKI5pzuuBeO4M9qtB-108" value="" style="endArrow=none;html=1;rounded=0;" parent="1" edge="1">
          <mxGeometry width="50" height="50" relative="1" as="geometry">
            <mxPoint x="683.65" y="546.87" as="sourcePoint" />
            <mxPoint x="683.83" y="638" as="targetPoint" />
          </mxGeometry>
        </mxCell>
        <mxCell id="Lc2VKI5pzuuBeO4M9qtB-121" value="" style="line;strokeWidth=2;html=1;" parent="1" vertex="1">
          <mxGeometry x="706.03" y="723" width="77.65" height="20" as="geometry" />
        </mxCell>
        <mxCell id="Lc2VKI5pzuuBeO4M9qtB-125" value="" style="shape=mxgraph.pid.agitators.agitator,_stirrer;html=1;pointerEvents=1;align=center;verticalLabelPosition=bottom;verticalAlign=top;dashed=0;rotation=0;" parent="1" vertex="1">
          <mxGeometry x="118.68" y="133" width="30" height="42.5" as="geometry" />
        </mxCell>
        <mxCell id="q1vCyBdFo2SXuo92vj-O-14" value="" style="shape=process;whiteSpace=wrap;html=1;backgroundOutline=1;fillColor=none;" parent="1" vertex="1">
          <mxGeometry x="548.98" y="132.25" width="150" height="43" as="geometry" />
        </mxCell>
        <mxCell id="q1vCyBdFo2SXuo92vj-O-15" value="" style="endArrow=none;html=1;rounded=0;" parent="1" edge="1">
          <mxGeometry width="50" height="50" relative="1" as="geometry">
            <mxPoint x="682.48" y="153.75" as="sourcePoint" />
            <mxPoint x="565.48" y="153.41" as="targetPoint" />
          </mxGeometry>
        </mxCell>
        <mxCell id="q1vCyBdFo2SXuo92vj-O-18" value="" style="endArrow=none;html=1;rounded=0;" parent="1" edge="1">
          <mxGeometry width="50" height="50" relative="1" as="geometry">
            <mxPoint x="581.98" y="99.25" as="sourcePoint" />
            <mxPoint x="669.98" y="209.25" as="targetPoint" />
          </mxGeometry>
        </mxCell>
        <mxCell id="q1vCyBdFo2SXuo92vj-O-34" value="" style="line;strokeWidth=2;html=1;" parent="1" vertex="1">
          <mxGeometry x="510.97999999999996" y="723" width="50" height="20" as="geometry" />
        </mxCell>
        <mxCell id="q1vCyBdFo2SXuo92vj-O-35" value="" style="line;strokeWidth=2;html=1;" parent="1" vertex="1">
          <mxGeometry x="310.98" y="723" width="50" height="20" as="geometry" />
        </mxCell>
        <mxCell id="q1vCyBdFo2SXuo92vj-O-36" value="" style="line;strokeWidth=2;html=1;" parent="1" vertex="1">
          <mxGeometry x="99" y="723" width="64.68" height="20" as="geometry" />
        </mxCell>
        <mxCell id="q1vCyBdFo2SXuo92vj-O-37" value="" style="endArrow=classic;startArrow=classic;html=1;rounded=0;" parent="1" edge="1">
          <mxGeometry width="50" height="50" relative="1" as="geometry">
            <mxPoint x="63.68000000000001" y="713" as="sourcePoint" />
            <mxPoint x="63.68000000000001" y="133" as="targetPoint" />
          </mxGeometry>
        </mxCell>
        <mxCell id="q1vCyBdFo2SXuo92vj-O-39" value="7m" style="text;html=1;align=center;verticalAlign=middle;resizable=0;points=[];autosize=1;strokeColor=none;fillColor=none;strokeWidth=1;rounded=0;fontStyle=1;fontSize=15;" parent="1" vertex="1">
          <mxGeometry x="23.68" y="410.86" width="40" height="30" as="geometry" />
        </mxCell>
        <mxCell id="q1vCyBdFo2SXuo92vj-O-42" value="" style="endArrow=classic;startArrow=classic;html=1;rounded=0;" parent="1" edge="1">
          <mxGeometry width="50" height="50" relative="1" as="geometry">
            <mxPoint x="103.68" y="63" as="sourcePoint" />
            <mxPoint x="786.0800244140624" y="63" as="targetPoint" />
          </mxGeometry>
        </mxCell>
        <mxCell id="q1vCyBdFo2SXuo92vj-O-43" value="9m" style="text;html=1;align=center;verticalAlign=middle;resizable=0;points=[];autosize=1;strokeColor=none;fillColor=none;strokeWidth=1;rounded=0;fontStyle=1;fontSize=15;" parent="1" vertex="1">
          <mxGeometry x="413.68" y="33" width="40" height="30" as="geometry" />
        </mxCell>
        <mxCell id="q1vCyBdFo2SXuo92vj-O-44" value="" style="endArrow=classic;startArrow=classic;html=1;rounded=0;" parent="1" edge="1">
          <mxGeometry width="50" height="50" relative="1" as="geometry">
            <mxPoint x="823.68" y="733" as="sourcePoint" />
            <mxPoint x="823.68" y="133" as="targetPoint" />
          </mxGeometry>
        </mxCell>
        <mxCell id="q1vCyBdFo2SXuo92vj-O-45" value="7m" style="text;html=1;align=center;verticalAlign=middle;resizable=0;points=[];autosize=1;strokeColor=none;fillColor=none;strokeWidth=1;rounded=0;fontStyle=1;fontSize=15;" parent="1" vertex="1">
          <mxGeometry x="840" y="415.86" width="40" height="30" as="geometry" />
        </mxCell>
        <mxCell id="q1vCyBdFo2SXuo92vj-O-46" value="" style="endArrow=classic;startArrow=classic;html=1;rounded=0;" parent="1" edge="1">
          <mxGeometry width="50" height="50" relative="1" as="geometry">
            <mxPoint x="101.28" y="813" as="sourcePoint" />
            <mxPoint x="783.6800244140625" y="813" as="targetPoint" />
          </mxGeometry>
        </mxCell>
        <mxCell id="q1vCyBdFo2SXuo92vj-O-47" value="9m" style="text;html=1;align=center;verticalAlign=middle;resizable=0;points=[];autosize=1;strokeColor=none;fillColor=none;strokeWidth=1;rounded=0;fontStyle=1;fontSize=15;" parent="1" vertex="1">
          <mxGeometry x="433.68" y="813" width="40" height="30" as="geometry" />
        </mxCell>
        <mxCell id="q1vCyBdFo2SXuo92vj-O-48" value="" style="endArrow=classic;startArrow=classic;html=1;rounded=0;" parent="1" edge="1">
          <mxGeometry width="50" height="50" relative="1" as="geometry">
            <mxPoint x="560.98" y="782.17" as="sourcePoint" />
            <mxPoint x="710.98" y="782.17" as="targetPoint" />
          </mxGeometry>
        </mxCell>
        <mxCell id="q1vCyBdFo2SXuo92vj-O-49" value="180cm" style="text;html=1;align=center;verticalAlign=middle;resizable=0;points=[];autosize=1;strokeColor=none;fillColor=none;strokeWidth=1;rounded=0;fontStyle=1;fontSize=15;" parent="1" vertex="1">
          <mxGeometry x="193.68" y="783" width="70" height="30" as="geometry" />
        </mxCell>
        <mxCell id="q1vCyBdFo2SXuo92vj-O-50" value="" style="endArrow=classic;startArrow=classic;html=1;rounded=0;" parent="1" edge="1">
          <mxGeometry width="50" height="50" relative="1" as="geometry">
            <mxPoint x="160.98000000000002" y="783" as="sourcePoint" />
            <mxPoint x="310.98" y="783" as="targetPoint" />
          </mxGeometry>
        </mxCell>
        <mxCell id="q1vCyBdFo2SXuo92vj-O-51" value="" style="endArrow=classic;startArrow=classic;html=1;rounded=0;" parent="1" edge="1">
          <mxGeometry width="50" height="50" relative="1" as="geometry">
            <mxPoint x="360.98" y="783" as="sourcePoint" />
            <mxPoint x="510.98" y="783" as="targetPoint" />
          </mxGeometry>
        </mxCell>
        <mxCell id="q1vCyBdFo2SXuo92vj-O-53" value="180cm" style="text;html=1;align=center;verticalAlign=middle;resizable=0;points=[];autosize=1;strokeColor=none;fillColor=none;strokeWidth=1;rounded=0;fontStyle=1;fontSize=15;" parent="1" vertex="1">
          <mxGeometry x="598.68" y="783" width="70" height="30" as="geometry" />
        </mxCell>
        <mxCell id="q1vCyBdFo2SXuo92vj-O-54" value="" style="endArrow=classic;startArrow=classic;html=1;rounded=0;" parent="1" edge="1">
          <mxGeometry width="50" height="50" relative="1" as="geometry">
            <mxPoint x="333.68" y="93" as="sourcePoint" />
            <mxPoint x="483.68" y="93" as="targetPoint" />
          </mxGeometry>
        </mxCell>
        <mxCell id="q1vCyBdFo2SXuo92vj-O-55" value="180cm" style="text;html=1;align=center;verticalAlign=middle;resizable=0;points=[];autosize=1;strokeColor=none;fillColor=none;strokeWidth=1;rounded=0;fontStyle=1;fontSize=15;" parent="1" vertex="1">
          <mxGeometry x="373.68" y="63" width="70" height="30" as="geometry" />
        </mxCell>
        <mxCell id="q1vCyBdFo2SXuo92vj-O-56" value="" style="endArrow=classic;startArrow=classic;html=1;rounded=0;" parent="1" edge="1">
          <mxGeometry width="50" height="50" relative="1" as="geometry">
            <mxPoint x="556.03" y="92.25" as="sourcePoint" />
            <mxPoint x="706.03" y="92.25" as="targetPoint" />
          </mxGeometry>
        </mxCell>
        <mxCell id="q1vCyBdFo2SXuo92vj-O-57" value="180cm" style="text;html=1;align=center;verticalAlign=middle;resizable=0;points=[];autosize=1;strokeColor=none;fillColor=none;strokeWidth=1;rounded=0;fontStyle=1;fontSize=15;" parent="1" vertex="1">
          <mxGeometry x="588.9799999999999" y="63" width="70" height="30" as="geometry" />
        </mxCell>
        <mxCell id="q1vCyBdFo2SXuo92vj-O-58" value="" style="endArrow=classic;startArrow=classic;html=1;rounded=0;" parent="1" edge="1">
          <mxGeometry width="50" height="50" relative="1" as="geometry">
            <mxPoint x="163.68" y="122" as="sourcePoint" />
            <mxPoint x="283.68" y="122" as="targetPoint" />
          </mxGeometry>
        </mxCell>
        <mxCell id="q1vCyBdFo2SXuo92vj-O-59" value="150cm" style="text;html=1;align=center;verticalAlign=middle;resizable=0;points=[];autosize=1;strokeColor=none;fillColor=none;strokeWidth=1;rounded=0;fontStyle=1;fontSize=15;" parent="1" vertex="1">
          <mxGeometry x="187.51000000000002" y="93.25" width="70" height="30" as="geometry" />
        </mxCell>
        <mxCell id="o7kLeNcApyUzDR75mA7z-1" value="N03 202" style="text;html=1;align=center;verticalAlign=middle;resizable=0;points=[];autosize=1;strokeColor=none;fillColor=none;fontStyle=1;fontSize=19;" parent="1" vertex="1">
          <mxGeometry x="220" y="383" width="100" height="40" as="geometry" />
        </mxCell>
        <mxCell id="4goyPBQcjFBJBdOGyTjl-1" value="" style="ellipse;whiteSpace=wrap;html=1;aspect=fixed;fillColor=none;labelBackgroundColor=none;" parent="1" vertex="1">
          <mxGeometry x="45.67999999999995" y="974" width="30" height="30" as="geometry" />
        </mxCell>
        <mxCell id="4goyPBQcjFBJBdOGyTjl-2" value="" style="ellipse;whiteSpace=wrap;html=1;fillColor=none;labelBackgroundColor=none;" parent="1" vertex="1">
          <mxGeometry x="45.67999999999995" y="1004" width="30" height="50" as="geometry" />
        </mxCell>
        <mxCell id="4goyPBQcjFBJBdOGyTjl-3" value="" style="ellipse;whiteSpace=wrap;html=1;fillColor=none;labelBackgroundColor=none;" parent="1" vertex="1">
          <mxGeometry x="45.67999999999995" y="924" width="30" height="50" as="geometry" />
        </mxCell>
        <mxCell id="4goyPBQcjFBJBdOGyTjl-4" value="" style="shape=process;whiteSpace=wrap;html=1;backgroundOutline=1;fillColor=none;verticalAlign=top;align=right;rotation=90;" parent="1" vertex="1">
          <mxGeometry x="190.68" y="973.99" width="110" height="30" as="geometry" />
        </mxCell>
        <mxCell id="4goyPBQcjFBJBdOGyTjl-5" value="" style="endArrow=none;html=1;rounded=0;" parent="1" edge="1">
          <mxGeometry width="50" height="50" relative="1" as="geometry">
            <mxPoint x="240.68" y="943.4300000000001" as="sourcePoint" />
            <mxPoint x="240.86000000000007" y="1034.5600000000002" as="targetPoint" />
          </mxGeometry>
        </mxCell>
        <mxCell id="4goyPBQcjFBJBdOGyTjl-6" value="" style="endArrow=none;html=1;rounded=0;" parent="1" edge="1">
          <mxGeometry width="50" height="50" relative="1" as="geometry">
            <mxPoint x="250.68" y="943.4300000000001" as="sourcePoint" />
            <mxPoint x="250.86000000000007" y="1034.5600000000002" as="targetPoint" />
          </mxGeometry>
        </mxCell>
        <mxCell id="4goyPBQcjFBJBdOGyTjl-7" value="" style="shape=process;whiteSpace=wrap;html=1;backgroundOutline=1;fillColor=none;" parent="1" vertex="1">
          <mxGeometry x="345.67999999999995" y="963.5" width="150" height="60" as="geometry" />
        </mxCell>
        <mxCell id="4goyPBQcjFBJBdOGyTjl-8" value="" style="endArrow=none;html=1;rounded=0;" parent="1" edge="1">
          <mxGeometry width="50" height="50" relative="1" as="geometry">
            <mxPoint x="480.67999999999995" y="993.21" as="sourcePoint" />
            <mxPoint x="360.67999999999995" y="993.21" as="targetPoint" />
            <Array as="points">
              <mxPoint x="414.9999999999999" y="993.5" />
            </Array>
          </mxGeometry>
        </mxCell>
        <mxCell id="4goyPBQcjFBJBdOGyTjl-9" value="" style="endArrow=none;html=1;rounded=0;entryX=0.904;entryY=0.975;entryDx=0;entryDy=0;entryPerimeter=0;" parent="1" target="4goyPBQcjFBJBdOGyTjl-7" edge="1">
          <mxGeometry width="50" height="50" relative="1" as="geometry">
            <mxPoint x="465.67999999999995" y="1056" as="sourcePoint" />
            <mxPoint x="485.67999999999995" y="1046" as="targetPoint" />
            <Array as="points">
              <mxPoint x="475.67999999999995" y="1036" />
            </Array>
          </mxGeometry>
        </mxCell>
        <mxCell id="4goyPBQcjFBJBdOGyTjl-10" value="" style="endArrow=none;html=1;rounded=0;exitX=0.107;exitY=-0.009;exitDx=0;exitDy=0;exitPerimeter=0;" parent="1" source="4goyPBQcjFBJBdOGyTjl-7" edge="1">
          <mxGeometry width="50" height="50" relative="1" as="geometry">
            <mxPoint x="365.67999999999995" y="954.5" as="sourcePoint" />
            <mxPoint x="375.67999999999995" y="934.5" as="targetPoint" />
            <Array as="points">
              <mxPoint x="375.67999999999995" y="934.5" />
            </Array>
          </mxGeometry>
        </mxCell>
        <mxCell id="4goyPBQcjFBJBdOGyTjl-11" value="" style="endArrow=none;html=1;rounded=0;" parent="1" edge="1">
          <mxGeometry width="50" height="50" relative="1" as="geometry">
            <mxPoint x="375.67999999999995" y="936" as="sourcePoint" />
            <mxPoint x="465.67999999999995" y="1056" as="targetPoint" />
          </mxGeometry>
        </mxCell>
        <mxCell id="4goyPBQcjFBJBdOGyTjl-12" value="" style="verticalLabelPosition=bottom;html=1;verticalAlign=top;align=center;shape=mxgraph.floorplan.doorDouble;aspect=fixed;" parent="1" vertex="1">
          <mxGeometry x="616" y="963.5" width="117.65" height="62.5" as="geometry" />
        </mxCell>
        <mxCell id="4goyPBQcjFBJBdOGyTjl-13" value="" style="shape=mxgraph.pid.agitators.agitator,_stirrer;html=1;pointerEvents=1;align=center;verticalLabelPosition=bottom;verticalAlign=top;dashed=0;rotation=0;" parent="1" vertex="1">
          <mxGeometry x="45.67999999999995" y="1100" width="30" height="42.5" as="geometry" />
        </mxCell>
        <mxCell id="4goyPBQcjFBJBdOGyTjl-14" value=": quạt trần" style="text;html=1;align=center;verticalAlign=middle;resizable=0;points=[];autosize=1;strokeColor=none;fillColor=none;fontStyle=1;fontSize=15;" parent="1" vertex="1">
          <mxGeometry x="90.67999999999995" y="974" width="90" height="30" as="geometry" />
        </mxCell>
        <mxCell id="4goyPBQcjFBJBdOGyTjl-15" value=": đèn" style="text;html=1;align=center;verticalAlign=middle;resizable=0;points=[];autosize=1;strokeColor=none;fillColor=none;fontStyle=1;fontSize=15;" parent="1" vertex="1">
          <mxGeometry x="260" y="974" width="60" height="30" as="geometry" />
        </mxCell>
        <mxCell id="4goyPBQcjFBJBdOGyTjl-16" value=": cửa sổ" style="text;html=1;align=center;verticalAlign=middle;resizable=0;points=[];autosize=1;strokeColor=none;fillColor=none;fontStyle=1;fontSize=15;" parent="1" vertex="1">
          <mxGeometry x="495.97999999999996" y="974" width="80" height="30" as="geometry" />
        </mxCell>
        <mxCell id="4goyPBQcjFBJBdOGyTjl-17" value=": cửa 2 cánh" style="text;html=1;align=center;verticalAlign=middle;resizable=0;points=[];autosize=1;strokeColor=none;fillColor=none;fontStyle=1;fontSize=15;" parent="1" vertex="1">
          <mxGeometry x="733.65" y="978.5" width="110" height="30" as="geometry" />
        </mxCell>
        <mxCell id="4goyPBQcjFBJBdOGyTjl-18" value=": bảng công tắc điều khiển" style="text;html=1;align=center;verticalAlign=middle;resizable=0;points=[];autosize=1;strokeColor=none;fillColor=none;fontStyle=1;fontSize=15;" parent="1" vertex="1">
          <mxGeometry x="85.67999999999995" y="1112.5" width="200" height="30" as="geometry" />
        </mxCell>
        <mxCell id="4goyPBQcjFBJBdOGyTjl-20" value="Hình2.15: Sơ đồ mặt bằng phòng N03 202....&amp;nbsp;" style="text;html=1;align=right;verticalAlign=middle;resizable=0;points=[];autosize=1;strokeColor=none;fillColor=none;fontStyle=1;fontSize=18;labelBackgroundColor=none;textShadow=0;spacingTop=2;" parent="1" vertex="1">
          <mxGeometry x="198.68" y="847" width="385" height="33" as="geometry" />
        </mxCell>
        <mxCell id="4goyPBQcjFBJBdOGyTjl-21" value="* Ghi chú :" style="text;html=1;align=center;verticalAlign=middle;resizable=0;points=[];autosize=1;strokeColor=none;fillColor=none;fontStyle=1;fontSize=16;" parent="1" vertex="1">
          <mxGeometry x="13.68" y="869" width="99" height="33" as="geometry" />
        </mxCell>
        <mxCell id="V8paf829me6YNn5D3Biu-2" value="" style="endArrow=none;html=1;rounded=0;exitX=0.103;exitY=-0.004;exitDx=0;exitDy=0;exitPerimeter=0;" edge="1" parent="1" source="q1vCyBdFo2SXuo92vj-O-14">
          <mxGeometry width="50" height="50" relative="1" as="geometry">
            <mxPoint x="559.98" y="132.25" as="sourcePoint" />
            <mxPoint x="581.98" y="99.25" as="targetPoint" />
          </mxGeometry>
        </mxCell>
        <mxCell id="V8paf829me6YNn5D3Biu-3" value="" style="endArrow=none;html=1;rounded=0;entryX=0.897;entryY=0.971;entryDx=0;entryDy=0;entryPerimeter=0;" edge="1" parent="1" target="q1vCyBdFo2SXuo92vj-O-14">
          <mxGeometry width="50" height="50" relative="1" as="geometry">
            <mxPoint x="669.98" y="209.25" as="sourcePoint" />
            <mxPoint x="676.98" y="187.25" as="targetPoint" />
          </mxGeometry>
        </mxCell>
        <mxCell id="V8paf829me6YNn5D3Biu-5" value="" style="shape=process;whiteSpace=wrap;html=1;backgroundOutline=1;fillColor=none;" vertex="1" parent="1">
          <mxGeometry x="333" y="132.25" width="150" height="43" as="geometry" />
        </mxCell>
        <mxCell id="V8paf829me6YNn5D3Biu-6" value="" style="endArrow=none;html=1;rounded=0;" edge="1" parent="1">
          <mxGeometry width="50" height="50" relative="1" as="geometry">
            <mxPoint x="466.5" y="153.75" as="sourcePoint" />
            <mxPoint x="349.5" y="153.41" as="targetPoint" />
          </mxGeometry>
        </mxCell>
        <mxCell id="V8paf829me6YNn5D3Biu-7" value="" style="endArrow=none;html=1;rounded=0;" edge="1" parent="1">
          <mxGeometry width="50" height="50" relative="1" as="geometry">
            <mxPoint x="366" y="99.25" as="sourcePoint" />
            <mxPoint x="454" y="209.25" as="targetPoint" />
          </mxGeometry>
        </mxCell>
        <mxCell id="V8paf829me6YNn5D3Biu-8" value="" style="endArrow=none;html=1;rounded=0;exitX=0.103;exitY=-0.004;exitDx=0;exitDy=0;exitPerimeter=0;" edge="1" parent="1" source="V8paf829me6YNn5D3Biu-5">
          <mxGeometry width="50" height="50" relative="1" as="geometry">
            <mxPoint x="344" y="132.25" as="sourcePoint" />
            <mxPoint x="366" y="99.25" as="targetPoint" />
          </mxGeometry>
        </mxCell>
        <mxCell id="V8paf829me6YNn5D3Biu-9" value="" style="endArrow=none;html=1;rounded=0;entryX=0.897;entryY=0.971;entryDx=0;entryDy=0;entryPerimeter=0;" edge="1" parent="1" target="V8paf829me6YNn5D3Biu-5">
          <mxGeometry width="50" height="50" relative="1" as="geometry">
            <mxPoint x="454" y="209.25" as="sourcePoint" />
            <mxPoint x="461" y="187.25" as="targetPoint" />
          </mxGeometry>
        </mxCell>
        <mxCell id="V8paf829me6YNn5D3Biu-10" value="" style="shape=process;whiteSpace=wrap;html=1;backgroundOutline=1;fillColor=none;" vertex="1" parent="1">
          <mxGeometry x="558.6800000000001" y="691" width="150" height="43" as="geometry" />
        </mxCell>
        <mxCell id="V8paf829me6YNn5D3Biu-11" value="" style="endArrow=none;html=1;rounded=0;" edge="1" parent="1">
          <mxGeometry width="50" height="50" relative="1" as="geometry">
            <mxPoint x="692.1800000000001" y="712.5" as="sourcePoint" />
            <mxPoint x="575.1800000000001" y="712.16" as="targetPoint" />
          </mxGeometry>
        </mxCell>
        <mxCell id="V8paf829me6YNn5D3Biu-12" value="" style="endArrow=none;html=1;rounded=0;" edge="1" parent="1">
          <mxGeometry width="50" height="50" relative="1" as="geometry">
            <mxPoint x="591.6800000000001" y="658" as="sourcePoint" />
            <mxPoint x="679.6800000000001" y="768" as="targetPoint" />
          </mxGeometry>
        </mxCell>
        <mxCell id="V8paf829me6YNn5D3Biu-13" value="" style="endArrow=none;html=1;rounded=0;exitX=0.103;exitY=-0.004;exitDx=0;exitDy=0;exitPerimeter=0;" edge="1" parent="1" source="V8paf829me6YNn5D3Biu-10">
          <mxGeometry width="50" height="50" relative="1" as="geometry">
            <mxPoint x="569.6800000000001" y="691" as="sourcePoint" />
            <mxPoint x="591.6800000000001" y="658" as="targetPoint" />
          </mxGeometry>
        </mxCell>
        <mxCell id="V8paf829me6YNn5D3Biu-14" value="" style="endArrow=none;html=1;rounded=0;entryX=0.897;entryY=0.971;entryDx=0;entryDy=0;entryPerimeter=0;" edge="1" parent="1" target="V8paf829me6YNn5D3Biu-10">
          <mxGeometry width="50" height="50" relative="1" as="geometry">
            <mxPoint x="679.6800000000001" y="768" as="sourcePoint" />
            <mxPoint x="686.6800000000001" y="746" as="targetPoint" />
          </mxGeometry>
        </mxCell>
        <mxCell id="V8paf829me6YNn5D3Biu-15" value="" style="shape=process;whiteSpace=wrap;html=1;backgroundOutline=1;fillColor=none;" vertex="1" parent="1">
          <mxGeometry x="360.97999999999996" y="691" width="150" height="43" as="geometry" />
        </mxCell>
        <mxCell id="V8paf829me6YNn5D3Biu-16" value="" style="endArrow=none;html=1;rounded=0;" edge="1" parent="1">
          <mxGeometry width="50" height="50" relative="1" as="geometry">
            <mxPoint x="494.47999999999996" y="712.5" as="sourcePoint" />
            <mxPoint x="377.47999999999996" y="712.16" as="targetPoint" />
          </mxGeometry>
        </mxCell>
        <mxCell id="V8paf829me6YNn5D3Biu-17" value="" style="endArrow=none;html=1;rounded=0;" edge="1" parent="1">
          <mxGeometry width="50" height="50" relative="1" as="geometry">
            <mxPoint x="393.97999999999996" y="658" as="sourcePoint" />
            <mxPoint x="481.97999999999996" y="768" as="targetPoint" />
          </mxGeometry>
        </mxCell>
        <mxCell id="V8paf829me6YNn5D3Biu-18" value="" style="endArrow=none;html=1;rounded=0;exitX=0.103;exitY=-0.004;exitDx=0;exitDy=0;exitPerimeter=0;" edge="1" parent="1" source="V8paf829me6YNn5D3Biu-15">
          <mxGeometry width="50" height="50" relative="1" as="geometry">
            <mxPoint x="371.97999999999996" y="691" as="sourcePoint" />
            <mxPoint x="393.97999999999996" y="658" as="targetPoint" />
          </mxGeometry>
        </mxCell>
        <mxCell id="V8paf829me6YNn5D3Biu-19" value="" style="endArrow=none;html=1;rounded=0;entryX=0.897;entryY=0.971;entryDx=0;entryDy=0;entryPerimeter=0;" edge="1" parent="1" target="V8paf829me6YNn5D3Biu-15">
          <mxGeometry width="50" height="50" relative="1" as="geometry">
            <mxPoint x="481.97999999999996" y="768" as="sourcePoint" />
            <mxPoint x="488.97999999999996" y="746" as="targetPoint" />
          </mxGeometry>
        </mxCell>
        <mxCell id="V8paf829me6YNn5D3Biu-21" value="" style="shape=process;whiteSpace=wrap;html=1;backgroundOutline=1;fillColor=none;" vertex="1" parent="1">
          <mxGeometry x="160.98000000000002" y="690.5" width="150" height="43" as="geometry" />
        </mxCell>
        <mxCell id="V8paf829me6YNn5D3Biu-22" value="" style="endArrow=none;html=1;rounded=0;" edge="1" parent="1">
          <mxGeometry width="50" height="50" relative="1" as="geometry">
            <mxPoint x="294.48" y="712" as="sourcePoint" />
            <mxPoint x="177.48000000000002" y="711.66" as="targetPoint" />
          </mxGeometry>
        </mxCell>
        <mxCell id="V8paf829me6YNn5D3Biu-23" value="" style="endArrow=none;html=1;rounded=0;" edge="1" parent="1">
          <mxGeometry width="50" height="50" relative="1" as="geometry">
            <mxPoint x="193.98000000000002" y="657.5" as="sourcePoint" />
            <mxPoint x="281.98" y="767.5" as="targetPoint" />
          </mxGeometry>
        </mxCell>
        <mxCell id="V8paf829me6YNn5D3Biu-24" value="" style="endArrow=none;html=1;rounded=0;exitX=0.103;exitY=-0.004;exitDx=0;exitDy=0;exitPerimeter=0;" edge="1" parent="1" source="V8paf829me6YNn5D3Biu-21">
          <mxGeometry width="50" height="50" relative="1" as="geometry">
            <mxPoint x="171.98000000000002" y="690.5" as="sourcePoint" />
            <mxPoint x="193.98000000000002" y="657.5" as="targetPoint" />
          </mxGeometry>
        </mxCell>
        <mxCell id="V8paf829me6YNn5D3Biu-25" value="" style="endArrow=none;html=1;rounded=0;entryX=0.897;entryY=0.971;entryDx=0;entryDy=0;entryPerimeter=0;" edge="1" parent="1" target="V8paf829me6YNn5D3Biu-21">
          <mxGeometry width="50" height="50" relative="1" as="geometry">
            <mxPoint x="281.98" y="767.5" as="sourcePoint" />
            <mxPoint x="288.98" y="745.5" as="targetPoint" />
          </mxGeometry>
        </mxCell>
        <mxCell id="V8paf829me6YNn5D3Biu-26" value="180cm" style="text;html=1;align=center;verticalAlign=middle;resizable=0;points=[];autosize=1;strokeColor=none;fillColor=none;strokeWidth=1;rounded=0;fontStyle=1;fontSize=15;" vertex="1" parent="1">
          <mxGeometry x="398.67999999999995" y="783" width="70" height="30" as="geometry" />
        </mxCell>
        <mxCell id="V8paf829me6YNn5D3Biu-28" value="" style="ellipse;whiteSpace=wrap;html=1;fillColor=none;" vertex="1" parent="1">
          <mxGeometry x="319" y="536.12" width="31.36" height="13.88" as="geometry" />
        </mxCell>
        <mxCell id="V8paf829me6YNn5D3Biu-31" value="" style="ellipse;whiteSpace=wrap;html=1;fillColor=none;labelBackgroundColor=none;" vertex="1" parent="1">
          <mxGeometry x="328.36" y="550" width="22" height="66" as="geometry" />
        </mxCell>
        <mxCell id="V8paf829me6YNn5D3Biu-37" value="" style="ellipse;whiteSpace=wrap;html=1;fillColor=none;labelBackgroundColor=none;" vertex="1" parent="1">
          <mxGeometry x="326.72" y="470.12" width="22" height="66" as="geometry" />
        </mxCell>
        <mxCell id="V8paf829me6YNn5D3Biu-38" value="" style="ellipse;whiteSpace=wrap;html=1;fillColor=none;" vertex="1" parent="1">
          <mxGeometry x="317.36" y="286" width="31.36" height="13.88" as="geometry" />
        </mxCell>
        <mxCell id="V8paf829me6YNn5D3Biu-39" value="" style="ellipse;whiteSpace=wrap;html=1;fillColor=none;labelBackgroundColor=none;" vertex="1" parent="1">
          <mxGeometry x="328.36" y="299.88" width="22" height="66" as="geometry" />
        </mxCell>
        <mxCell id="V8paf829me6YNn5D3Biu-40" value="" style="ellipse;whiteSpace=wrap;html=1;fillColor=none;labelBackgroundColor=none;" vertex="1" parent="1">
          <mxGeometry x="326.72" y="220" width="22" height="66" as="geometry" />
        </mxCell>
        <mxCell id="V8paf829me6YNn5D3Biu-41" value="" style="ellipse;whiteSpace=wrap;html=1;fillColor=none;" vertex="1" parent="1">
          <mxGeometry x="542.98" y="286" width="31.36" height="13.88" as="geometry" />
        </mxCell>
        <mxCell id="V8paf829me6YNn5D3Biu-42" value="" style="ellipse;whiteSpace=wrap;html=1;fillColor=none;labelBackgroundColor=none;" vertex="1" parent="1">
          <mxGeometry x="553.98" y="299.88" width="22" height="66" as="geometry" />
        </mxCell>
        <mxCell id="V8paf829me6YNn5D3Biu-43" value="" style="ellipse;whiteSpace=wrap;html=1;fillColor=none;labelBackgroundColor=none;" vertex="1" parent="1">
          <mxGeometry x="552.34" y="220" width="22" height="66" as="geometry" />
        </mxCell>
        <mxCell id="V8paf829me6YNn5D3Biu-44" value="" style="ellipse;whiteSpace=wrap;html=1;fillColor=none;" vertex="1" parent="1">
          <mxGeometry x="544.62" y="536.12" width="31.36" height="13.88" as="geometry" />
        </mxCell>
        <mxCell id="V8paf829me6YNn5D3Biu-45" value="" style="ellipse;whiteSpace=wrap;html=1;fillColor=none;labelBackgroundColor=none;" vertex="1" parent="1">
          <mxGeometry x="553.98" y="550" width="22" height="66" as="geometry" />
        </mxCell>
        <mxCell id="V8paf829me6YNn5D3Biu-46" value="" style="ellipse;whiteSpace=wrap;html=1;fillColor=none;labelBackgroundColor=none;" vertex="1" parent="1">
          <mxGeometry x="552.34" y="470.12" width="22" height="66" as="geometry" />
        </mxCell>
        <mxCell id="V8paf829me6YNn5D3Biu-54" value="" style="line;strokeWidth=15;fillColor=default;align=left;verticalAlign=middle;spacingTop=-1;spacingLeft=3;spacingRight=3;rotatable=0;labelPosition=right;points=[];portConstraint=eastwest;strokeColor=inherit;rounded=0;shadow=0;glass=0;fillStyle=solid;fontFamily=Helvetica;fontSize=12;fontColor=default;labelBackgroundColor=default;labelBorderColor=default;perimeterSpacing=15;" vertex="1" parent="1">
          <mxGeometry x="181.28" y="638" width="35.48" height="19" as="geometry" />
        </mxCell>
        <mxCell id="V8paf829me6YNn5D3Biu-55" value="" style="line;strokeWidth=15;fillColor=default;align=left;verticalAlign=middle;spacingTop=-1;spacingLeft=3;spacingRight=3;rotatable=0;labelPosition=right;points=[];portConstraint=eastwest;strokeColor=inherit;rounded=0;shadow=0;glass=0;fillStyle=solid;fontFamily=Helvetica;fontSize=12;fontColor=default;labelBackgroundColor=default;labelBorderColor=default;perimeterSpacing=15;" vertex="1" parent="1">
          <mxGeometry x="180.68" y="536.12" width="35.48" height="19" as="geometry" />
        </mxCell>
        <mxCell id="V8paf829me6YNn5D3Biu-56" value="" style="line;strokeWidth=15;fillColor=default;align=left;verticalAlign=middle;spacingTop=-1;spacingLeft=3;spacingRight=3;rotatable=0;labelPosition=right;points=[];portConstraint=eastwest;strokeColor=inherit;rounded=0;shadow=0;glass=0;fillStyle=solid;fontFamily=Helvetica;fontSize=12;fontColor=default;labelBackgroundColor=default;labelBorderColor=default;perimeterSpacing=15;" vertex="1" parent="1">
          <mxGeometry x="430.94" y="638" width="35.48" height="19" as="geometry" />
        </mxCell>
        <mxCell id="V8paf829me6YNn5D3Biu-57" value="" style="line;strokeWidth=15;fillColor=default;align=left;verticalAlign=middle;spacingTop=-1;spacingLeft=3;spacingRight=3;rotatable=0;labelPosition=right;points=[];portConstraint=eastwest;strokeColor=inherit;rounded=0;shadow=0;glass=0;fillStyle=solid;fontFamily=Helvetica;fontSize=12;fontColor=default;labelBackgroundColor=default;labelBorderColor=default;perimeterSpacing=15;" vertex="1" parent="1">
          <mxGeometry x="430.94" y="539" width="35.48" height="19" as="geometry" />
        </mxCell>
        <mxCell id="V8paf829me6YNn5D3Biu-58" value="" style="line;strokeWidth=15;fillColor=default;align=left;verticalAlign=middle;spacingTop=-1;spacingLeft=3;spacingRight=3;rotatable=0;labelPosition=right;points=[];portConstraint=eastwest;strokeColor=inherit;rounded=0;shadow=0;glass=0;fillStyle=solid;fontFamily=Helvetica;fontSize=12;fontColor=default;labelBackgroundColor=default;labelBorderColor=default;perimeterSpacing=15;" vertex="1" parent="1">
          <mxGeometry x="180.67999999999998" y="493.62" width="35.48" height="19" as="geometry" />
        </mxCell>
        <mxCell id="V8paf829me6YNn5D3Biu-59" value="" style="line;strokeWidth=15;fillColor=default;align=left;verticalAlign=middle;spacingTop=-1;spacingLeft=3;spacingRight=3;rotatable=0;labelPosition=right;points=[];portConstraint=eastwest;strokeColor=inherit;rounded=0;shadow=0;glass=0;fillStyle=solid;fontFamily=Helvetica;fontSize=12;fontColor=default;labelBackgroundColor=default;labelBorderColor=default;perimeterSpacing=15;" vertex="1" parent="1">
          <mxGeometry x="180.68" y="391.86" width="35.48" height="19" as="geometry" />
        </mxCell>
        <mxCell id="V8paf829me6YNn5D3Biu-60" value="" style="line;strokeWidth=15;fillColor=default;align=left;verticalAlign=middle;spacingTop=-1;spacingLeft=3;spacingRight=3;rotatable=0;labelPosition=right;points=[];portConstraint=eastwest;strokeColor=inherit;rounded=0;shadow=0;glass=0;fillStyle=solid;fontFamily=Helvetica;fontSize=12;fontColor=default;labelBackgroundColor=default;labelBorderColor=default;perimeterSpacing=15;" vertex="1" parent="1">
          <mxGeometry x="180.68" y="346.88" width="35.48" height="19" as="geometry" />
        </mxCell>
        <mxCell id="V8paf829me6YNn5D3Biu-64" value="" style="line;strokeWidth=15;fillColor=default;align=left;verticalAlign=middle;spacingTop=-1;spacingLeft=3;spacingRight=3;rotatable=0;labelPosition=right;points=[];portConstraint=eastwest;strokeColor=inherit;rounded=0;shadow=0;glass=0;fillStyle=solid;fontFamily=Helvetica;fontSize=12;fontColor=default;labelBackgroundColor=default;labelBorderColor=default;perimeterSpacing=15;" vertex="1" parent="1">
          <mxGeometry x="181.27999999999997" y="253" width="35.48" height="19" as="geometry" />
        </mxCell>
        <mxCell id="V8paf829me6YNn5D3Biu-66" value="" style="line;strokeWidth=15;fillColor=default;align=left;verticalAlign=middle;spacingTop=-1;spacingLeft=3;spacingRight=3;rotatable=0;labelPosition=right;points=[];portConstraint=eastwest;strokeColor=inherit;rounded=0;shadow=0;glass=0;fillStyle=solid;fontFamily=Helvetica;fontSize=12;fontColor=default;labelBackgroundColor=default;labelBorderColor=default;perimeterSpacing=15;" vertex="1" parent="1">
          <mxGeometry x="430.93999999999994" y="493.62" width="35.48" height="19" as="geometry" />
        </mxCell>
        <mxCell id="V8paf829me6YNn5D3Biu-68" value="" style="line;strokeWidth=15;fillColor=default;align=left;verticalAlign=middle;spacingTop=-1;spacingLeft=3;spacingRight=3;rotatable=0;labelPosition=right;points=[];portConstraint=eastwest;strokeColor=inherit;rounded=0;shadow=0;glass=0;fillStyle=solid;fontFamily=Helvetica;fontSize=12;fontColor=default;labelBackgroundColor=default;labelBorderColor=default;perimeterSpacing=15;" vertex="1" parent="1">
          <mxGeometry x="430.93999999999994" y="391.86" width="35.48" height="19" as="geometry" />
        </mxCell>
        <mxCell id="V8paf829me6YNn5D3Biu-69" value="" style="line;strokeWidth=15;fillColor=default;align=left;verticalAlign=middle;spacingTop=-1;spacingLeft=3;spacingRight=3;rotatable=0;labelPosition=right;points=[];portConstraint=eastwest;strokeColor=inherit;rounded=0;shadow=0;glass=0;fillStyle=solid;fontFamily=Helvetica;fontSize=12;fontColor=default;labelBackgroundColor=default;labelBorderColor=default;perimeterSpacing=15;" vertex="1" parent="1">
          <mxGeometry x="660.91" y="638" width="35.48" height="19" as="geometry" />
        </mxCell>
        <mxCell id="V8paf829me6YNn5D3Biu-70" value="" style="line;strokeWidth=15;fillColor=default;align=left;verticalAlign=middle;spacingTop=-1;spacingLeft=3;spacingRight=3;rotatable=0;labelPosition=right;points=[];portConstraint=eastwest;strokeColor=inherit;rounded=0;shadow=0;glass=0;fillStyle=solid;fontFamily=Helvetica;fontSize=12;fontColor=default;labelBackgroundColor=default;labelBorderColor=default;perimeterSpacing=15;" vertex="1" parent="1">
          <mxGeometry x="660.91" y="533.56" width="35.48" height="19" as="geometry" />
        </mxCell>
        <mxCell id="V8paf829me6YNn5D3Biu-72" value="" style="line;strokeWidth=15;fillColor=default;align=left;verticalAlign=middle;spacingTop=-1;spacingLeft=3;spacingRight=3;rotatable=0;labelPosition=right;points=[];portConstraint=eastwest;strokeColor=inherit;rounded=0;shadow=0;glass=0;fillStyle=solid;fontFamily=Helvetica;fontSize=12;fontColor=default;labelBackgroundColor=default;labelBorderColor=default;perimeterSpacing=15;" vertex="1" parent="1">
          <mxGeometry x="660.9099999999999" y="493.62" width="35.48" height="19" as="geometry" />
        </mxCell>
        <mxCell id="V8paf829me6YNn5D3Biu-73" value="" style="line;strokeWidth=15;fillColor=default;align=left;verticalAlign=middle;spacingTop=-1;spacingLeft=3;spacingRight=3;rotatable=0;labelPosition=right;points=[];portConstraint=eastwest;strokeColor=inherit;rounded=0;shadow=0;glass=0;fillStyle=solid;fontFamily=Helvetica;fontSize=12;fontColor=default;labelBackgroundColor=default;labelBorderColor=default;perimeterSpacing=15;" vertex="1" parent="1">
          <mxGeometry x="660.91" y="396.86" width="35.48" height="19" as="geometry" />
        </mxCell>
        <mxCell id="V8paf829me6YNn5D3Biu-74" value="" style="line;strokeWidth=15;fillColor=default;align=left;verticalAlign=middle;spacingTop=-1;spacingLeft=3;spacingRight=3;rotatable=0;labelPosition=right;points=[];portConstraint=eastwest;strokeColor=inherit;rounded=0;shadow=0;glass=0;fillStyle=solid;fontFamily=Helvetica;fontSize=12;fontColor=default;labelBackgroundColor=default;labelBorderColor=default;perimeterSpacing=15;" vertex="1" parent="1">
          <mxGeometry x="430.93999999999994" y="253" width="35.48" height="19" as="geometry" />
        </mxCell>
        <mxCell id="V8paf829me6YNn5D3Biu-75" value="" style="line;strokeWidth=15;fillColor=default;align=left;verticalAlign=middle;spacingTop=-1;spacingLeft=3;spacingRight=3;rotatable=0;labelPosition=right;points=[];portConstraint=eastwest;strokeColor=inherit;rounded=0;shadow=0;glass=0;fillStyle=solid;fontFamily=Helvetica;fontSize=12;fontColor=default;labelBackgroundColor=default;labelBorderColor=default;perimeterSpacing=15;" vertex="1" parent="1">
          <mxGeometry x="430.93999999999994" y="346.88" width="35.48" height="19" as="geometry" />
        </mxCell>
        <mxCell id="V8paf829me6YNn5D3Biu-76" value="" style="line;strokeWidth=15;fillColor=default;align=left;verticalAlign=middle;spacingTop=-1;spacingLeft=3;spacingRight=3;rotatable=0;labelPosition=right;points=[];portConstraint=eastwest;strokeColor=inherit;rounded=0;shadow=0;glass=0;fillStyle=solid;fontFamily=Helvetica;fontSize=12;fontColor=default;labelBackgroundColor=default;labelBorderColor=default;perimeterSpacing=15;" vertex="1" parent="1">
          <mxGeometry x="660.91" y="168" width="35.48" height="371" as="geometry" />
        </mxCell>
        <mxCell id="V8paf829me6YNn5D3Biu-77" value="" style="line;strokeWidth=15;fillColor=default;align=left;verticalAlign=middle;spacingTop=-1;spacingLeft=3;spacingRight=3;rotatable=0;labelPosition=right;points=[];portConstraint=eastwest;strokeColor=inherit;rounded=0;shadow=0;glass=0;fillStyle=solid;fontFamily=Helvetica;fontSize=12;fontColor=default;labelBackgroundColor=default;labelBorderColor=default;perimeterSpacing=15;" vertex="1" parent="1">
          <mxGeometry x="660.91" y="243.5" width="35.48" height="19" as="geometry" />
        </mxCell>
        <mxCell id="V8paf829me6YNn5D3Biu-78" value="" style="shape=waypoint;sketch=0;fillStyle=solid;size=6;pointerEvents=1;points=[];fillColor=none;resizable=0;rotatable=0;perimeter=centerPerimeter;snapToPoint=1;rounded=0;shadow=0;glass=0;strokeColor=#1A1A1A;align=right;verticalAlign=top;fontFamily=Helvetica;fontSize=12;fontColor=default;" vertex="1" parent="1">
          <mxGeometry x="189.01999999999998" y="588.56" width="20" height="20" as="geometry" />
        </mxCell>
        <mxCell id="V8paf829me6YNn5D3Biu-79" value="" style="shape=waypoint;sketch=0;fillStyle=solid;size=6;pointerEvents=1;points=[];fillColor=none;resizable=0;rotatable=0;perimeter=centerPerimeter;snapToPoint=1;rounded=0;shadow=0;glass=0;strokeColor=#1A1A1A;align=right;verticalAlign=top;fontFamily=Helvetica;fontSize=12;fontColor=default;" vertex="1" parent="1">
          <mxGeometry x="438.67999999999995" y="588.56" width="20" height="20" as="geometry" />
        </mxCell>
        <mxCell id="V8paf829me6YNn5D3Biu-80" value="" style="shape=waypoint;sketch=0;fillStyle=solid;size=6;pointerEvents=1;points=[];fillColor=none;resizable=0;rotatable=0;perimeter=centerPerimeter;snapToPoint=1;rounded=0;shadow=0;glass=0;strokeColor=#1A1A1A;align=right;verticalAlign=top;fontFamily=Helvetica;fontSize=12;fontColor=default;" vertex="1" parent="1">
          <mxGeometry x="668.6800000000001" y="584.5" width="20" height="20" as="geometry" />
        </mxCell>
        <mxCell id="V8paf829me6YNn5D3Biu-81" value="" style="shape=waypoint;sketch=0;fillStyle=solid;size=6;pointerEvents=1;points=[];fillColor=none;resizable=0;rotatable=0;perimeter=centerPerimeter;snapToPoint=1;rounded=0;shadow=0;glass=0;strokeColor=#1A1A1A;align=right;verticalAlign=top;fontFamily=Helvetica;fontSize=12;fontColor=default;" vertex="1" parent="1">
          <mxGeometry x="188.42" y="445.85999999999996" width="20" height="20" as="geometry" />
        </mxCell>
        <mxCell id="V8paf829me6YNn5D3Biu-83" value="" style="shape=waypoint;sketch=0;fillStyle=solid;size=6;pointerEvents=1;points=[];fillColor=none;resizable=0;rotatable=0;perimeter=centerPerimeter;snapToPoint=1;rounded=0;shadow=0;glass=0;strokeColor=#1A1A1A;align=right;verticalAlign=top;fontFamily=Helvetica;fontSize=12;fontColor=default;" vertex="1" parent="1">
          <mxGeometry x="438.67999999999995" y="447.54999999999995" width="20" height="20" as="geometry" />
        </mxCell>
        <mxCell id="V8paf829me6YNn5D3Biu-84" value="" style="shape=waypoint;sketch=0;fillStyle=solid;size=6;pointerEvents=1;points=[];fillColor=none;resizable=0;rotatable=0;perimeter=centerPerimeter;snapToPoint=1;rounded=0;shadow=0;glass=0;strokeColor=#1A1A1A;align=right;verticalAlign=top;fontFamily=Helvetica;fontSize=12;fontColor=default;" vertex="1" parent="1">
          <mxGeometry x="668.65" y="445.85999999999996" width="20" height="20" as="geometry" />
        </mxCell>
        <mxCell id="V8paf829me6YNn5D3Biu-85" value="" style="shape=waypoint;sketch=0;fillStyle=solid;size=6;pointerEvents=1;points=[];fillColor=none;resizable=0;rotatable=0;perimeter=centerPerimeter;snapToPoint=1;rounded=0;shadow=0;glass=0;strokeColor=#1A1A1A;align=right;verticalAlign=top;fontFamily=Helvetica;fontSize=12;fontColor=default;" vertex="1" parent="1">
          <mxGeometry x="188.42000000000002" y="303.55999999999995" width="20" height="20" as="geometry" />
        </mxCell>
        <mxCell id="V8paf829me6YNn5D3Biu-86" value="" style="shape=waypoint;sketch=0;fillStyle=solid;size=6;pointerEvents=1;points=[];fillColor=none;resizable=0;rotatable=0;perimeter=centerPerimeter;snapToPoint=1;rounded=0;shadow=0;glass=0;strokeColor=#1A1A1A;align=right;verticalAlign=top;fontFamily=Helvetica;fontSize=12;fontColor=default;" vertex="1" parent="1">
          <mxGeometry x="438.68" y="299.87999999999994" width="20" height="20" as="geometry" />
        </mxCell>
        <mxCell id="V8paf829me6YNn5D3Biu-87" value="" style="shape=waypoint;sketch=0;fillStyle=solid;size=6;pointerEvents=1;points=[];fillColor=none;resizable=0;rotatable=0;perimeter=centerPerimeter;snapToPoint=1;rounded=0;shadow=0;glass=0;strokeColor=#1A1A1A;align=right;verticalAlign=top;fontFamily=Helvetica;fontSize=12;fontColor=default;" vertex="1" parent="1">
          <mxGeometry x="668.68" y="297.42999999999995" width="20" height="20" as="geometry" />
        </mxCell>
      </root>
    </mxGraphModel>
  </diagram>
  <diagram id="C6lsUGIKE4j8gIZNfiX-" name="Trang-2">
    <mxGraphModel dx="1005" dy="530" grid="1" gridSize="10" guides="1" tooltips="1" connect="1" arrows="1" fold="1" page="1" pageScale="1" pageWidth="827" pageHeight="1169" math="0" shadow="0">
      <root>
        <mxCell id="0" />
        <mxCell id="1" parent="0" />
        <mxCell id="eOm446NFrj2QfKjKOSJg-1" value="" style="ellipse;whiteSpace=wrap;html=1;aspect=fixed;fillColor=none;labelBackgroundColor=none;" vertex="1" parent="1">
          <mxGeometry x="80" y="130" width="30" height="30" as="geometry" />
        </mxCell>
        <mxCell id="eOm446NFrj2QfKjKOSJg-2" value="" style="ellipse;whiteSpace=wrap;html=1;fillColor=none;labelBackgroundColor=none;" vertex="1" parent="1">
          <mxGeometry x="80" y="160" width="30" height="50" as="geometry" />
        </mxCell>
        <mxCell id="eOm446NFrj2QfKjKOSJg-3" value="" style="ellipse;whiteSpace=wrap;html=1;fillColor=none;labelBackgroundColor=none;" vertex="1" parent="1">
          <mxGeometry x="80" y="80" width="30" height="50" as="geometry" />
        </mxCell>
        <mxCell id="vogQ7iNehbLjbnYLtFUX-1" value="" style="shape=process;whiteSpace=wrap;html=1;backgroundOutline=1;fillColor=none;verticalAlign=top;align=right;rotation=90;" vertex="1" parent="1">
          <mxGeometry x="40" y="290.56" width="110" height="30" as="geometry" />
        </mxCell>
        <mxCell id="vogQ7iNehbLjbnYLtFUX-2" value="" style="endArrow=none;html=1;rounded=0;" edge="1" parent="1">
          <mxGeometry width="50" height="50" relative="1" as="geometry">
            <mxPoint x="90" y="260" as="sourcePoint" />
            <mxPoint x="90.18" y="351.13" as="targetPoint" />
          </mxGeometry>
        </mxCell>
        <mxCell id="vogQ7iNehbLjbnYLtFUX-3" value="" style="endArrow=none;html=1;rounded=0;" edge="1" parent="1">
          <mxGeometry width="50" height="50" relative="1" as="geometry">
            <mxPoint x="100" y="260" as="sourcePoint" />
            <mxPoint x="100.18" y="351.13" as="targetPoint" />
          </mxGeometry>
        </mxCell>
        <mxCell id="C7C8N5XWcl5UErHKNbGL-1" value="" style="shape=process;whiteSpace=wrap;html=1;backgroundOutline=1;fillColor=none;" vertex="1" parent="1">
          <mxGeometry x="80" y="420" width="150" height="60" as="geometry" />
        </mxCell>
        <mxCell id="C7C8N5XWcl5UErHKNbGL-2" value="" style="endArrow=none;html=1;rounded=0;" edge="1" parent="1">
          <mxGeometry width="50" height="50" relative="1" as="geometry">
            <mxPoint x="215" y="449.71000000000004" as="sourcePoint" />
            <mxPoint x="95" y="449.71000000000004" as="targetPoint" />
            <Array as="points">
              <mxPoint x="149.32" y="450" />
            </Array>
          </mxGeometry>
        </mxCell>
        <mxCell id="C7C8N5XWcl5UErHKNbGL-3" value="" style="endArrow=none;html=1;rounded=0;entryX=0.904;entryY=0.975;entryDx=0;entryDy=0;entryPerimeter=0;" edge="1" parent="1" target="C7C8N5XWcl5UErHKNbGL-1">
          <mxGeometry width="50" height="50" relative="1" as="geometry">
            <mxPoint x="200" y="510" as="sourcePoint" />
            <mxPoint x="220" y="500" as="targetPoint" />
            <Array as="points">
              <mxPoint x="210" y="490" />
            </Array>
          </mxGeometry>
        </mxCell>
        <mxCell id="C7C8N5XWcl5UErHKNbGL-4" value="" style="endArrow=none;html=1;rounded=0;exitX=0.107;exitY=-0.009;exitDx=0;exitDy=0;exitPerimeter=0;" edge="1" parent="1" source="C7C8N5XWcl5UErHKNbGL-1">
          <mxGeometry width="50" height="50" relative="1" as="geometry">
            <mxPoint x="100" y="411" as="sourcePoint" />
            <mxPoint x="110" y="391" as="targetPoint" />
            <Array as="points">
              <mxPoint x="110" y="391" />
            </Array>
          </mxGeometry>
        </mxCell>
        <mxCell id="C7C8N5XWcl5UErHKNbGL-5" value="" style="endArrow=none;html=1;rounded=0;" edge="1" parent="1">
          <mxGeometry width="50" height="50" relative="1" as="geometry">
            <mxPoint x="110" y="390" as="sourcePoint" />
            <mxPoint x="200" y="510" as="targetPoint" />
          </mxGeometry>
        </mxCell>
        <mxCell id="My0dR4qmD46sux0nH4mE-1" value="" style="verticalLabelPosition=bottom;html=1;verticalAlign=top;align=center;shape=mxgraph.floorplan.doorDouble;aspect=fixed;" vertex="1" parent="1">
          <mxGeometry x="80" y="530" width="117.65" height="62.5" as="geometry" />
        </mxCell>
        <mxCell id="fFDYJARjxnDfdwJWSeBS-1" value="" style="shape=mxgraph.pid.agitators.agitator,_stirrer;html=1;pointerEvents=1;align=center;verticalLabelPosition=bottom;verticalAlign=top;dashed=0;rotation=0;" vertex="1" parent="1">
          <mxGeometry x="80" y="620" width="30" height="42.5" as="geometry" />
        </mxCell>
        <mxCell id="mmpQR0__JYSqn6xRGvGn-2" value=": quạt trần" style="text;html=1;align=center;verticalAlign=middle;resizable=0;points=[];autosize=1;strokeColor=none;fillColor=none;fontStyle=1;fontSize=15;" vertex="1" parent="1">
          <mxGeometry x="125" y="130" width="90" height="30" as="geometry" />
        </mxCell>
        <mxCell id="mmpQR0__JYSqn6xRGvGn-4" value=": đèn" style="text;html=1;align=center;verticalAlign=middle;resizable=0;points=[];autosize=1;strokeColor=none;fillColor=none;fontStyle=1;fontSize=15;" vertex="1" parent="1">
          <mxGeometry x="140" y="290.56" width="60" height="30" as="geometry" />
        </mxCell>
        <mxCell id="mmpQR0__JYSqn6xRGvGn-5" value=": cửa sổ" style="text;html=1;align=center;verticalAlign=middle;resizable=0;points=[];autosize=1;strokeColor=none;fillColor=none;fontStyle=1;fontSize=15;" vertex="1" parent="1">
          <mxGeometry x="275" y="435" width="80" height="30" as="geometry" />
        </mxCell>
        <mxCell id="mmpQR0__JYSqn6xRGvGn-6" value=": cửa 2 cánh" style="text;html=1;align=center;verticalAlign=middle;resizable=0;points=[];autosize=1;strokeColor=none;fillColor=none;fontStyle=1;fontSize=15;" vertex="1" parent="1">
          <mxGeometry x="260" y="546.25" width="110" height="30" as="geometry" />
        </mxCell>
        <mxCell id="mmpQR0__JYSqn6xRGvGn-7" value=": bảng công tắc điều khiển" style="text;html=1;align=center;verticalAlign=middle;resizable=0;points=[];autosize=1;strokeColor=none;fillColor=none;fontStyle=1;fontSize=15;" vertex="1" parent="1">
          <mxGeometry x="215" y="632.5" width="200" height="30" as="geometry" />
        </mxCell>
      </root>
    </mxGraphModel>
  </diagram>
</mxfile>
